<svg xmlns="http://www.w3.org/2000/svg" viewBox="0 0 1920 1080" width="1920" height="1080">
	<style>
		tspan { white-space:pre }
		.shp0 { fill: #5ddee3 } 
	</style>
	<path id="Shape 4" fill-rule="evenodd" class="shp0" d="M0 14L1920 14L1920 41.54C1936.17 45.15 1946 49.92 1946 55.16C1946 66.44 1900.41 75.56 1844 75.56C1811.22 75.56 1782.09 72.48 1763.44 67.68L1762.58 67.68C1761.36 67.25 1760.12 66.83 1758.88 66.41C1757.68 66.05 1756.55 65.68 1755.47 65.31C1731.31 57.68 1703.76 53.37 1674.5 53.37C1642.33 53.37 1612.22 58.59 1586.42 67.68L1586.01 67.68C1582.4 69.01 1577.46 69.83 1572 69.83C1566.54 69.83 1561.6 69.01 1557.99 67.68L1557.55 67.68C1517.85 60.06 1467.65 55.52 1413 55.52C1358.35 55.52 1308.15 60.06 1268.45 67.68L1267.41 67.68C1247.78 74.54 1211.53 79.14 1170 79.14C1127.16 79.14 1089.96 74.25 1070.79 67.03C1045.05 58.88 1013.55 54.08 979.5 54.08C945.46 54.08 913.96 58.88 888.23 67.03C881.74 70.62 870.41 73 857.5 73C844.13 73 832.45 70.45 826.1 66.64C797.85 58.16 765.67 53.37 731.5 53.37C695.95 53.37 662.55 58.56 633.49 67.68L632.29 67.68C622.31 70.25 602.21 72 579 72C555.18 72 534.63 70.16 524.94 67.48C462.27 59.97 383.99 55.52 299 55.52C213.24 55.52 134.31 60.05 71.36 67.68L70.89 67.68C61.74 70.37 50.14 71.98 37.5 71.98C24.86 71.98 13.26 70.37 4.11 67.68L0 67.68L0 66.34C-9.88 62.77 -16 57.8 -16 52.29C-16 46.79 -9.88 41.81 0 38.24L0 14Z" />
	<path id="Shape 5" class="shp0" d="M0 -41L1920 -41L1920 34L0 34L0 -41Z" />
</svg>